<mxfile host="app.diagrams.net" modified="2024-04-26T10:35:13.223Z" agent="Mozilla/5.0 (Windows NT 10.0; Win64; x64) AppleWebKit/537.36 (KHTML, like Gecko) Chrome/124.0.0.0 Safari/537.36 Edg/124.0.0.0" etag="EOmLr2CbSEjhKIT-VMc7" version="24.3.0" type="device">
  <diagram id="C5RBs43oDa-KdzZeNtuy" name="Page-1">
    <mxGraphModel dx="716" dy="409" grid="1" gridSize="10" guides="1" tooltips="1" connect="1" arrows="1" fold="1" page="1" pageScale="1" pageWidth="827" pageHeight="1169" math="0" shadow="0">
      <root>
        <mxCell id="WIyWlLk6GJQsqaUBKTNV-0" />
        <mxCell id="WIyWlLk6GJQsqaUBKTNV-1" parent="WIyWlLk6GJQsqaUBKTNV-0" />
        <mxCell id="KQmQDuhJLHhJns7RMKba-28" style="edgeStyle=orthogonalEdgeStyle;rounded=0;orthogonalLoop=1;jettySize=auto;html=1;exitX=0.5;exitY=1;exitDx=0;exitDy=0;" edge="1" parent="WIyWlLk6GJQsqaUBKTNV-1" source="KQmQDuhJLHhJns7RMKba-22">
          <mxGeometry relative="1" as="geometry">
            <mxPoint x="221" y="450" as="targetPoint" />
          </mxGeometry>
        </mxCell>
        <mxCell id="KQmQDuhJLHhJns7RMKba-22" value="" style="rhombus;whiteSpace=wrap;html=1;" vertex="1" parent="WIyWlLk6GJQsqaUBKTNV-1">
          <mxGeometry x="162.5" y="340" width="115" height="90" as="geometry" />
        </mxCell>
        <mxCell id="KQmQDuhJLHhJns7RMKba-11" style="edgeStyle=orthogonalEdgeStyle;rounded=0;orthogonalLoop=1;jettySize=auto;html=1;exitX=0.5;exitY=1;exitDx=0;exitDy=0;entryX=0.5;entryY=0;entryDx=0;entryDy=0;" edge="1" parent="WIyWlLk6GJQsqaUBKTNV-1" source="WIyWlLk6GJQsqaUBKTNV-3" target="KQmQDuhJLHhJns7RMKba-6">
          <mxGeometry relative="1" as="geometry" />
        </mxCell>
        <mxCell id="WIyWlLk6GJQsqaUBKTNV-3" value="&lt;font face=&quot;Times New Roman&quot;&gt;Главная программа&lt;/font&gt;" style="rounded=1;whiteSpace=wrap;html=1;fontSize=12;glass=0;strokeWidth=1;shadow=0;" parent="WIyWlLk6GJQsqaUBKTNV-1" vertex="1">
          <mxGeometry x="160" y="80" width="120" height="40" as="geometry" />
        </mxCell>
        <mxCell id="WIyWlLk6GJQsqaUBKTNV-11" value="Конец" style="rounded=1;whiteSpace=wrap;html=1;fontSize=12;glass=0;strokeWidth=1;shadow=0;" parent="WIyWlLk6GJQsqaUBKTNV-1" vertex="1">
          <mxGeometry x="160" y="450" width="120" height="40" as="geometry" />
        </mxCell>
        <mxCell id="KQmQDuhJLHhJns7RMKba-5" value="&lt;h5 style=&quot;&quot;&gt;&lt;font face=&quot;Times New Roman&quot; style=&quot;&quot;&gt;&lt;font style=&quot;font-weight: normal;&quot; size=&quot;1&quot;&gt;Инициализация функции conductTest()&lt;/font&gt;&lt;/font&gt;&lt;/h5&gt;" style="shape=process;whiteSpace=wrap;html=1;backgroundOutline=1;align=center;" vertex="1" parent="WIyWlLk6GJQsqaUBKTNV-1">
          <mxGeometry x="125" y="365" width="190" height="40" as="geometry" />
        </mxCell>
        <mxCell id="KQmQDuhJLHhJns7RMKba-9" style="edgeStyle=orthogonalEdgeStyle;rounded=0;orthogonalLoop=1;jettySize=auto;html=1;exitX=0.5;exitY=1;exitDx=0;exitDy=0;" edge="1" parent="WIyWlLk6GJQsqaUBKTNV-1" source="KQmQDuhJLHhJns7RMKba-6">
          <mxGeometry relative="1" as="geometry">
            <mxPoint x="220" y="220" as="targetPoint" />
          </mxGeometry>
        </mxCell>
        <mxCell id="KQmQDuhJLHhJns7RMKba-6" value="&lt;font face=&quot;Times New Roman&quot;&gt;string filename =&amp;nbsp;&quot;questions.txt&quot;&amp;nbsp;&lt;/font&gt;&lt;div&gt;&lt;font face=&quot;LS4gh3PQYyicdVe-Vlhf&quot;&gt;short MAX_QUESTIONS = 20,&lt;/font&gt;&lt;div&gt;&lt;font face=&quot;LS4gh3PQYyicdVe-Vlhf&quot;&gt;numQuestions = 0&lt;/font&gt;&lt;/div&gt;&lt;/div&gt;" style="rounded=0;whiteSpace=wrap;html=1;" vertex="1" parent="WIyWlLk6GJQsqaUBKTNV-1">
          <mxGeometry x="125" y="150" width="190" height="50" as="geometry" />
        </mxCell>
        <mxCell id="KQmQDuhJLHhJns7RMKba-15" value="" style="rhombus;whiteSpace=wrap;html=1;" vertex="1" parent="WIyWlLk6GJQsqaUBKTNV-1">
          <mxGeometry x="162" y="220" width="115" height="90" as="geometry" />
        </mxCell>
        <mxCell id="KQmQDuhJLHhJns7RMKba-18" style="edgeStyle=orthogonalEdgeStyle;rounded=0;orthogonalLoop=1;jettySize=auto;html=1;" edge="1" parent="WIyWlLk6GJQsqaUBKTNV-1" source="KQmQDuhJLHhJns7RMKba-4">
          <mxGeometry relative="1" as="geometry">
            <mxPoint x="390" y="320" as="targetPoint" />
          </mxGeometry>
        </mxCell>
        <mxCell id="KQmQDuhJLHhJns7RMKba-4" value="&lt;h5 style=&quot;&quot;&gt;&lt;font face=&quot;Times New Roman&quot; style=&quot;font-size: 9px; font-weight: normal;&quot;&gt;Инициализация функции !readQuestionsFromFile()&lt;/font&gt;&lt;/h5&gt;" style="shape=process;whiteSpace=wrap;html=1;backgroundOutline=1;align=center;" vertex="1" parent="WIyWlLk6GJQsqaUBKTNV-1">
          <mxGeometry x="135" y="242.5" width="170" height="45" as="geometry" />
        </mxCell>
        <mxCell id="KQmQDuhJLHhJns7RMKba-20" value="&lt;font face=&quot;Times New Roman&quot;&gt;Да&lt;/font&gt;" style="text;html=1;align=center;verticalAlign=middle;whiteSpace=wrap;rounded=0;" vertex="1" parent="WIyWlLk6GJQsqaUBKTNV-1">
          <mxGeometry x="318" y="240" width="60" height="30" as="geometry" />
        </mxCell>
        <mxCell id="KQmQDuhJLHhJns7RMKba-21" value="&lt;font face=&quot;Times New Roman&quot;&gt;return 1&lt;/font&gt;" style="rounded=1;whiteSpace=wrap;html=1;" vertex="1" parent="WIyWlLk6GJQsqaUBKTNV-1">
          <mxGeometry x="360" y="320" width="60" height="20" as="geometry" />
        </mxCell>
        <mxCell id="KQmQDuhJLHhJns7RMKba-23" value="" style="edgeStyle=orthogonalEdgeStyle;rounded=0;orthogonalLoop=1;jettySize=auto;html=1;" edge="1" parent="WIyWlLk6GJQsqaUBKTNV-1" source="KQmQDuhJLHhJns7RMKba-15">
          <mxGeometry relative="1" as="geometry">
            <mxPoint x="220" y="310" as="sourcePoint" />
            <mxPoint x="220" y="340" as="targetPoint" />
          </mxGeometry>
        </mxCell>
        <mxCell id="KQmQDuhJLHhJns7RMKba-24" style="edgeStyle=orthogonalEdgeStyle;rounded=0;orthogonalLoop=1;jettySize=auto;html=1;entryX=0.5;entryY=0;entryDx=0;entryDy=0;" edge="1" parent="WIyWlLk6GJQsqaUBKTNV-1">
          <mxGeometry relative="1" as="geometry">
            <mxPoint x="390.5" y="450" as="targetPoint" />
            <mxPoint x="315" y="385" as="sourcePoint" />
            <Array as="points">
              <mxPoint x="315.5" y="386" />
              <mxPoint x="390.5" y="386" />
            </Array>
          </mxGeometry>
        </mxCell>
        <mxCell id="KQmQDuhJLHhJns7RMKba-25" value="&lt;font face=&quot;Times New Roman&quot;&gt;Нет&lt;/font&gt;" style="text;html=1;align=center;verticalAlign=middle;whiteSpace=wrap;rounded=0;" vertex="1" parent="WIyWlLk6GJQsqaUBKTNV-1">
          <mxGeometry x="328" y="360" width="60" height="30" as="geometry" />
        </mxCell>
        <mxCell id="KQmQDuhJLHhJns7RMKba-26" value="&lt;font face=&quot;Times New Roman&quot;&gt;return 0&lt;/font&gt;" style="rounded=1;whiteSpace=wrap;html=1;" vertex="1" parent="WIyWlLk6GJQsqaUBKTNV-1">
          <mxGeometry x="360" y="450" width="60" height="20" as="geometry" />
        </mxCell>
        <mxCell id="KQmQDuhJLHhJns7RMKba-31" value="" style="edgeStyle=orthogonalEdgeStyle;rounded=0;orthogonalLoop=1;jettySize=auto;html=1;entryX=0.5;entryY=0;entryDx=0;entryDy=0;" edge="1" parent="WIyWlLk6GJQsqaUBKTNV-1" source="KQmQDuhJLHhJns7RMKba-29" target="KQmQDuhJLHhJns7RMKba-41">
          <mxGeometry relative="1" as="geometry" />
        </mxCell>
        <mxCell id="KQmQDuhJLHhJns7RMKba-29" value="Функция для чтения вопросов из файла" style="rounded=1;whiteSpace=wrap;html=1;fontFamily=Times New Roman;" vertex="1" parent="WIyWlLk6GJQsqaUBKTNV-1">
          <mxGeometry x="570" y="80" width="120" height="40" as="geometry" />
        </mxCell>
        <mxCell id="KQmQDuhJLHhJns7RMKba-34" value="" style="edgeStyle=orthogonalEdgeStyle;rounded=0;orthogonalLoop=1;jettySize=auto;html=1;" edge="1" parent="WIyWlLk6GJQsqaUBKTNV-1" source="KQmQDuhJLHhJns7RMKba-30" target="KQmQDuhJLHhJns7RMKba-33">
          <mxGeometry relative="1" as="geometry" />
        </mxCell>
        <mxCell id="KQmQDuhJLHhJns7RMKba-30" value="&lt;h5 style=&quot;&quot;&gt;&lt;font size=&quot;1&quot; face=&quot;Times New Roman&quot;&gt;&lt;span style=&quot;font-weight: 400;&quot;&gt;file(filename)&lt;/span&gt;&lt;/font&gt;&lt;br&gt;&lt;/h5&gt;" style="shape=process;whiteSpace=wrap;html=1;backgroundOutline=1;align=center;" vertex="1" parent="WIyWlLk6GJQsqaUBKTNV-1">
          <mxGeometry x="560" y="190" width="140" height="30" as="geometry" />
        </mxCell>
        <mxCell id="KQmQDuhJLHhJns7RMKba-40" style="edgeStyle=orthogonalEdgeStyle;rounded=0;orthogonalLoop=1;jettySize=auto;html=1;entryX=0.5;entryY=0;entryDx=0;entryDy=0;" edge="1" parent="WIyWlLk6GJQsqaUBKTNV-1" source="KQmQDuhJLHhJns7RMKba-32" target="KQmQDuhJLHhJns7RMKba-44">
          <mxGeometry relative="1" as="geometry">
            <mxPoint x="630" y="360" as="targetPoint" />
          </mxGeometry>
        </mxCell>
        <mxCell id="KQmQDuhJLHhJns7RMKba-32" value="" style="rhombus;whiteSpace=wrap;html=1;" vertex="1" parent="WIyWlLk6GJQsqaUBKTNV-1">
          <mxGeometry x="572" y="240" width="115" height="90" as="geometry" />
        </mxCell>
        <mxCell id="KQmQDuhJLHhJns7RMKba-33" value="&lt;font size=&quot;1&quot; face=&quot;Times New Roman&quot;&gt;Файл открыт. file.is_open()&lt;/font&gt;" style="shape=process;whiteSpace=wrap;html=1;backgroundOutline=1;align=center;" vertex="1" parent="WIyWlLk6GJQsqaUBKTNV-1">
          <mxGeometry x="569.5" y="270" width="120" height="27.5" as="geometry" />
        </mxCell>
        <mxCell id="KQmQDuhJLHhJns7RMKba-36" style="edgeStyle=orthogonalEdgeStyle;rounded=0;orthogonalLoop=1;jettySize=auto;html=1;" edge="1" parent="WIyWlLk6GJQsqaUBKTNV-1">
          <mxGeometry relative="1" as="geometry">
            <mxPoint x="750" y="320" as="targetPoint" />
            <mxPoint x="689.5" y="285" as="sourcePoint" />
          </mxGeometry>
        </mxCell>
        <mxCell id="KQmQDuhJLHhJns7RMKba-37" value="&lt;font face=&quot;Times New Roman&quot;&gt;Нет&lt;/font&gt;" style="text;html=1;align=center;verticalAlign=middle;whiteSpace=wrap;rounded=0;" vertex="1" parent="WIyWlLk6GJQsqaUBKTNV-1">
          <mxGeometry x="687" y="260" width="60" height="30" as="geometry" />
        </mxCell>
        <mxCell id="KQmQDuhJLHhJns7RMKba-64" style="edgeStyle=orthogonalEdgeStyle;rounded=0;orthogonalLoop=1;jettySize=auto;html=1;" edge="1" parent="WIyWlLk6GJQsqaUBKTNV-1" source="KQmQDuhJLHhJns7RMKba-39">
          <mxGeometry relative="1" as="geometry">
            <mxPoint x="755" y="370" as="targetPoint" />
          </mxGeometry>
        </mxCell>
        <mxCell id="KQmQDuhJLHhJns7RMKba-39" value="&lt;font style=&quot;font-size: 9px;&quot;&gt;cerr &amp;lt;&amp;lt; &quot;Невозможно открыть файл&quot;&lt;/font&gt;" style="rounded=0;whiteSpace=wrap;html=1;" vertex="1" parent="WIyWlLk6GJQsqaUBKTNV-1">
          <mxGeometry x="700" y="320" width="110" height="30" as="geometry" />
        </mxCell>
        <mxCell id="KQmQDuhJLHhJns7RMKba-43" style="edgeStyle=orthogonalEdgeStyle;rounded=0;orthogonalLoop=1;jettySize=auto;html=1;entryX=0.5;entryY=0;entryDx=0;entryDy=0;" edge="1" parent="WIyWlLk6GJQsqaUBKTNV-1" source="KQmQDuhJLHhJns7RMKba-41" target="KQmQDuhJLHhJns7RMKba-30">
          <mxGeometry relative="1" as="geometry" />
        </mxCell>
        <mxCell id="KQmQDuhJLHhJns7RMKba-41" value="&lt;font face=&quot;Times New Roman&quot;&gt;&amp;nbsp;numQuestions = 0&lt;/font&gt;" style="rounded=0;whiteSpace=wrap;html=1;" vertex="1" parent="WIyWlLk6GJQsqaUBKTNV-1">
          <mxGeometry x="569.5" y="140" width="120" height="30" as="geometry" />
        </mxCell>
        <mxCell id="KQmQDuhJLHhJns7RMKba-44" value="" style="shape=loopLimit;whiteSpace=wrap;html=1;" vertex="1" parent="WIyWlLk6GJQsqaUBKTNV-1">
          <mxGeometry x="570" y="360" width="120" height="40" as="geometry" />
        </mxCell>
        <mxCell id="KQmQDuhJLHhJns7RMKba-50" style="edgeStyle=orthogonalEdgeStyle;rounded=0;orthogonalLoop=1;jettySize=auto;html=1;exitX=0.5;exitY=1;exitDx=0;exitDy=0;entryX=0.5;entryY=0;entryDx=0;entryDy=0;" edge="1" parent="WIyWlLk6GJQsqaUBKTNV-1" source="KQmQDuhJLHhJns7RMKba-45" target="KQmQDuhJLHhJns7RMKba-48">
          <mxGeometry relative="1" as="geometry" />
        </mxCell>
        <mxCell id="KQmQDuhJLHhJns7RMKba-45" value="&lt;font size=&quot;1&quot; face=&quot;Times New Roman&quot;&gt;Получение строк getline()&lt;/font&gt;" style="shape=process;whiteSpace=wrap;html=1;backgroundOutline=1;align=center;" vertex="1" parent="WIyWlLk6GJQsqaUBKTNV-1">
          <mxGeometry x="579.5" y="370" width="100.5" height="30" as="geometry" />
        </mxCell>
        <mxCell id="KQmQDuhJLHhJns7RMKba-52" style="edgeStyle=orthogonalEdgeStyle;rounded=0;orthogonalLoop=1;jettySize=auto;html=1;exitX=0.5;exitY=1;exitDx=0;exitDy=0;entryX=0.5;entryY=0;entryDx=0;entryDy=0;" edge="1" parent="WIyWlLk6GJQsqaUBKTNV-1" source="KQmQDuhJLHhJns7RMKba-48" target="KQmQDuhJLHhJns7RMKba-51">
          <mxGeometry relative="1" as="geometry" />
        </mxCell>
        <mxCell id="KQmQDuhJLHhJns7RMKba-48" value="&lt;span style=&quot;font-family: &amp;quot;Times New Roman&amp;quot;; font-size: 11px;&quot;&gt;Чтение строк в файле&lt;/span&gt;" style="rounded=0;whiteSpace=wrap;html=1;fontSize=11;" vertex="1" parent="WIyWlLk6GJQsqaUBKTNV-1">
          <mxGeometry x="579.5" y="420" width="100" height="30" as="geometry" />
        </mxCell>
        <mxCell id="KQmQDuhJLHhJns7RMKba-54" style="edgeStyle=orthogonalEdgeStyle;rounded=0;orthogonalLoop=1;jettySize=auto;html=1;exitX=0.5;exitY=1;exitDx=0;exitDy=0;entryX=0.5;entryY=0;entryDx=0;entryDy=0;" edge="1" parent="WIyWlLk6GJQsqaUBKTNV-1" source="KQmQDuhJLHhJns7RMKba-51" target="KQmQDuhJLHhJns7RMKba-53">
          <mxGeometry relative="1" as="geometry" />
        </mxCell>
        <mxCell id="KQmQDuhJLHhJns7RMKba-51" value="&lt;font face=&quot;Times New Roman&quot; style=&quot;font-size: 9px;&quot;&gt;Подсчет кол-во ответов&lt;/font&gt;" style="shape=loopLimit;whiteSpace=wrap;html=1;" vertex="1" parent="WIyWlLk6GJQsqaUBKTNV-1">
          <mxGeometry x="569.5" y="470" width="120" height="40" as="geometry" />
        </mxCell>
        <mxCell id="KQmQDuhJLHhJns7RMKba-57" style="edgeStyle=orthogonalEdgeStyle;rounded=0;orthogonalLoop=1;jettySize=auto;html=1;exitX=0.5;exitY=1;exitDx=0;exitDy=0;entryX=0.5;entryY=1;entryDx=0;entryDy=0;" edge="1" parent="WIyWlLk6GJQsqaUBKTNV-1" source="KQmQDuhJLHhJns7RMKba-53" target="KQmQDuhJLHhJns7RMKba-55">
          <mxGeometry relative="1" as="geometry" />
        </mxCell>
        <mxCell id="KQmQDuhJLHhJns7RMKba-53" value="&lt;span style=&quot;font-family: &amp;quot;Times New Roman&amp;quot;; font-size: 8px;&quot;&gt;Чтение строк в файле и запись в массив questions&lt;/span&gt;" style="rounded=0;whiteSpace=wrap;html=1;fontSize=8;" vertex="1" parent="WIyWlLk6GJQsqaUBKTNV-1">
          <mxGeometry x="579.5" y="530" width="100" height="30" as="geometry" />
        </mxCell>
        <mxCell id="KQmQDuhJLHhJns7RMKba-55" value="&lt;font style=&quot;font-size: 11px;&quot; face=&quot;Times New Roman&quot;&gt;Конец подсчета&lt;/font&gt;" style="shape=loopLimit;whiteSpace=wrap;html=1;direction=west;" vertex="1" parent="WIyWlLk6GJQsqaUBKTNV-1">
          <mxGeometry x="580" y="580" width="100" height="40" as="geometry" />
        </mxCell>
        <mxCell id="KQmQDuhJLHhJns7RMKba-58" style="edgeStyle=orthogonalEdgeStyle;rounded=0;orthogonalLoop=1;jettySize=auto;html=1;exitX=0.5;exitY=1;exitDx=0;exitDy=0;entryX=0.5;entryY=0;entryDx=0;entryDy=0;" edge="1" parent="WIyWlLk6GJQsqaUBKTNV-1" target="KQmQDuhJLHhJns7RMKba-59">
          <mxGeometry relative="1" as="geometry">
            <mxPoint x="630" y="620" as="sourcePoint" />
          </mxGeometry>
        </mxCell>
        <mxCell id="KQmQDuhJLHhJns7RMKba-61" style="edgeStyle=orthogonalEdgeStyle;rounded=0;orthogonalLoop=1;jettySize=auto;html=1;entryX=0.5;entryY=1;entryDx=0;entryDy=0;" edge="1" parent="WIyWlLk6GJQsqaUBKTNV-1" source="KQmQDuhJLHhJns7RMKba-59" target="KQmQDuhJLHhJns7RMKba-60">
          <mxGeometry relative="1" as="geometry" />
        </mxCell>
        <mxCell id="KQmQDuhJLHhJns7RMKba-59" value="&lt;font face=&quot;Times New Roman&quot;&gt;Считываем правильный ответ&lt;/font&gt;&lt;br&gt;&lt;div&gt;&lt;font face=&quot;Times New Roman&quot;&gt;Считываем количество баллов за вопрос&lt;br&gt;&lt;/font&gt;&lt;/div&gt;" style="rounded=0;whiteSpace=wrap;html=1;fontSize=8;" vertex="1" parent="WIyWlLk6GJQsqaUBKTNV-1">
          <mxGeometry x="579.5" y="640" width="100" height="50" as="geometry" />
        </mxCell>
        <mxCell id="KQmQDuhJLHhJns7RMKba-62" style="edgeStyle=orthogonalEdgeStyle;rounded=0;orthogonalLoop=1;jettySize=auto;html=1;" edge="1" parent="WIyWlLk6GJQsqaUBKTNV-1" source="KQmQDuhJLHhJns7RMKba-60">
          <mxGeometry relative="1" as="geometry">
            <mxPoint x="630" y="770" as="targetPoint" />
          </mxGeometry>
        </mxCell>
        <mxCell id="KQmQDuhJLHhJns7RMKba-60" value="&lt;font style=&quot;font-size: 11px;&quot; face=&quot;Times New Roman&quot;&gt;Конец получений строк&lt;/font&gt;" style="shape=loopLimit;whiteSpace=wrap;html=1;direction=west;" vertex="1" parent="WIyWlLk6GJQsqaUBKTNV-1">
          <mxGeometry x="579.5" y="710" width="100" height="40" as="geometry" />
        </mxCell>
        <mxCell id="KQmQDuhJLHhJns7RMKba-63" value="&lt;font face=&quot;Times New Roman&quot;&gt;return true&lt;/font&gt;" style="rounded=1;whiteSpace=wrap;html=1;" vertex="1" parent="WIyWlLk6GJQsqaUBKTNV-1">
          <mxGeometry x="599.5" y="770" width="60" height="20" as="geometry" />
        </mxCell>
        <mxCell id="KQmQDuhJLHhJns7RMKba-65" value="&lt;font face=&quot;Times New Roman&quot;&gt;return false&lt;/font&gt;" style="rounded=1;whiteSpace=wrap;html=1;" vertex="1" parent="WIyWlLk6GJQsqaUBKTNV-1">
          <mxGeometry x="725" y="370" width="60" height="20" as="geometry" />
        </mxCell>
        <mxCell id="KQmQDuhJLHhJns7RMKba-66" value="" style="edgeStyle=orthogonalEdgeStyle;rounded=0;orthogonalLoop=1;jettySize=auto;html=1;entryX=0.5;entryY=0;entryDx=0;entryDy=0;" edge="1" parent="WIyWlLk6GJQsqaUBKTNV-1" source="KQmQDuhJLHhJns7RMKba-67" target="KQmQDuhJLHhJns7RMKba-121">
          <mxGeometry relative="1" as="geometry" />
        </mxCell>
        <mxCell id="KQmQDuhJLHhJns7RMKba-67" value="Функция для вывода вопроса и вариантов ответов" style="rounded=1;whiteSpace=wrap;html=1;fontFamily=Times New Roman;" vertex="1" parent="WIyWlLk6GJQsqaUBKTNV-1">
          <mxGeometry x="904.75" y="70" width="130.5" height="50" as="geometry" />
        </mxCell>
        <mxCell id="KQmQDuhJLHhJns7RMKba-71" value="" style="edgeStyle=orthogonalEdgeStyle;rounded=0;orthogonalLoop=1;jettySize=auto;html=1;" edge="1" parent="WIyWlLk6GJQsqaUBKTNV-1" source="KQmQDuhJLHhJns7RMKba-69">
          <mxGeometry relative="1" as="geometry">
            <mxPoint x="970.0344827586207" y="260.0209895052475" as="targetPoint" />
          </mxGeometry>
        </mxCell>
        <mxCell id="KQmQDuhJLHhJns7RMKba-73" value="" style="edgeStyle=orthogonalEdgeStyle;rounded=0;orthogonalLoop=1;jettySize=auto;html=1;" edge="1" parent="WIyWlLk6GJQsqaUBKTNV-1" source="KQmQDuhJLHhJns7RMKba-69" target="KQmQDuhJLHhJns7RMKba-72">
          <mxGeometry relative="1" as="geometry" />
        </mxCell>
        <mxCell id="KQmQDuhJLHhJns7RMKba-69" value="&lt;font face=&quot;Times New Roman&quot;&gt;Вывод вопроса&lt;/font&gt;&lt;div&gt;&lt;font face=&quot;Times New Roman&quot;&gt;cout &amp;lt;&amp;lt; q.question &amp;lt;&amp;lt; endl&lt;br&gt;&lt;/font&gt;&lt;/div&gt;" style="rounded=0;whiteSpace=wrap;html=1;" vertex="1" parent="WIyWlLk6GJQsqaUBKTNV-1">
          <mxGeometry x="900" y="200" width="140" height="40" as="geometry" />
        </mxCell>
        <mxCell id="KQmQDuhJLHhJns7RMKba-76" value="" style="edgeStyle=orthogonalEdgeStyle;rounded=0;orthogonalLoop=1;jettySize=auto;html=1;" edge="1" parent="WIyWlLk6GJQsqaUBKTNV-1" source="KQmQDuhJLHhJns7RMKba-72" target="KQmQDuhJLHhJns7RMKba-75">
          <mxGeometry relative="1" as="geometry" />
        </mxCell>
        <mxCell id="KQmQDuhJLHhJns7RMKba-72" value="&lt;font face=&quot;Times New Roman&quot;&gt;Вывод вариантов ответов&lt;/font&gt;" style="shape=loopLimit;whiteSpace=wrap;html=1;" vertex="1" parent="WIyWlLk6GJQsqaUBKTNV-1">
          <mxGeometry x="910" y="260" width="120" height="40" as="geometry" />
        </mxCell>
        <mxCell id="KQmQDuhJLHhJns7RMKba-74" value="" style="edgeStyle=orthogonalEdgeStyle;rounded=0;orthogonalLoop=1;jettySize=auto;html=1;" edge="1" parent="WIyWlLk6GJQsqaUBKTNV-1" source="KQmQDuhJLHhJns7RMKba-75">
          <mxGeometry relative="1" as="geometry">
            <mxPoint x="970" y="380" as="targetPoint" />
          </mxGeometry>
        </mxCell>
        <mxCell id="KQmQDuhJLHhJns7RMKba-75" value="&lt;font face=&quot;Times New Roman&quot;&gt;Вывод ответов&lt;/font&gt;&lt;div&gt;&lt;font face=&quot;Times New Roman&quot;&gt;cout &amp;lt;&amp;lt; q.options[i]&amp;nbsp;&amp;lt;&amp;lt; endl&lt;br&gt;&lt;/font&gt;&lt;/div&gt;" style="rounded=0;whiteSpace=wrap;html=1;" vertex="1" parent="WIyWlLk6GJQsqaUBKTNV-1">
          <mxGeometry x="900" y="320" width="140" height="40" as="geometry" />
        </mxCell>
        <mxCell id="KQmQDuhJLHhJns7RMKba-80" value="" style="edgeStyle=orthogonalEdgeStyle;rounded=0;orthogonalLoop=1;jettySize=auto;html=1;" edge="1" parent="WIyWlLk6GJQsqaUBKTNV-1" source="KQmQDuhJLHhJns7RMKba-77" target="KQmQDuhJLHhJns7RMKba-79">
          <mxGeometry relative="1" as="geometry" />
        </mxCell>
        <mxCell id="KQmQDuhJLHhJns7RMKba-77" value="&lt;font face=&quot;Times New Roman&quot;&gt;Конец цикла&lt;/font&gt;" style="shape=loopLimit;whiteSpace=wrap;html=1;direction=west;" vertex="1" parent="WIyWlLk6GJQsqaUBKTNV-1">
          <mxGeometry x="910" y="380" width="120" height="40" as="geometry" />
        </mxCell>
        <mxCell id="KQmQDuhJLHhJns7RMKba-79" value="void" style="rounded=1;whiteSpace=wrap;html=1;fontFamily=Times New Roman;" vertex="1" parent="WIyWlLk6GJQsqaUBKTNV-1">
          <mxGeometry x="922.38" y="440" width="95.25" height="30" as="geometry" />
        </mxCell>
        <mxCell id="KQmQDuhJLHhJns7RMKba-81" value="" style="edgeStyle=orthogonalEdgeStyle;rounded=0;orthogonalLoop=1;jettySize=auto;html=1;entryX=0.5;entryY=0;entryDx=0;entryDy=0;" edge="1" parent="WIyWlLk6GJQsqaUBKTNV-1" source="KQmQDuhJLHhJns7RMKba-82" target="KQmQDuhJLHhJns7RMKba-86">
          <mxGeometry relative="1" as="geometry" />
        </mxCell>
        <mxCell id="KQmQDuhJLHhJns7RMKba-82" value="Функция для ответа на вопрос" style="rounded=1;whiteSpace=wrap;html=1;fontFamily=Times New Roman;" vertex="1" parent="WIyWlLk6GJQsqaUBKTNV-1">
          <mxGeometry x="1144.75" y="69.97" width="130.5" height="50" as="geometry" />
        </mxCell>
        <mxCell id="KQmQDuhJLHhJns7RMKba-90" value="" style="edgeStyle=orthogonalEdgeStyle;rounded=0;orthogonalLoop=1;jettySize=auto;html=1;" edge="1" parent="WIyWlLk6GJQsqaUBKTNV-1" source="KQmQDuhJLHhJns7RMKba-85" target="KQmQDuhJLHhJns7RMKba-89">
          <mxGeometry relative="1" as="geometry" />
        </mxCell>
        <mxCell id="KQmQDuhJLHhJns7RMKba-85" value="&lt;font face=&quot;Times New Roman&quot;&gt;Ввод ответа на вопрос и запись в userAnswer&lt;/font&gt;&lt;div&gt;&lt;font face=&quot;Times New Roman&quot;&gt;&lt;div&gt;&amp;nbsp; getline(cin, userAnswer)&lt;/div&gt;&lt;/font&gt;&lt;/div&gt;" style="rounded=0;whiteSpace=wrap;html=1;" vertex="1" parent="WIyWlLk6GJQsqaUBKTNV-1">
          <mxGeometry x="1140" y="192.47" width="140" height="50.03" as="geometry" />
        </mxCell>
        <mxCell id="KQmQDuhJLHhJns7RMKba-88" value="" style="edgeStyle=orthogonalEdgeStyle;rounded=0;orthogonalLoop=1;jettySize=auto;html=1;" edge="1" parent="WIyWlLk6GJQsqaUBKTNV-1" source="KQmQDuhJLHhJns7RMKba-86" target="KQmQDuhJLHhJns7RMKba-85">
          <mxGeometry relative="1" as="geometry" />
        </mxCell>
        <mxCell id="KQmQDuhJLHhJns7RMKba-86" value="&lt;font face=&quot;Times New Roman&quot;&gt;userAnswer&lt;/font&gt;" style="rounded=0;whiteSpace=wrap;html=1;" vertex="1" parent="WIyWlLk6GJQsqaUBKTNV-1">
          <mxGeometry x="1150" y="140" width="120" height="27.53" as="geometry" />
        </mxCell>
        <mxCell id="KQmQDuhJLHhJns7RMKba-89" value="Возвращает true если ответ корректный или false если нет" style="rounded=1;whiteSpace=wrap;html=1;fontFamily=Times New Roman;" vertex="1" parent="WIyWlLk6GJQsqaUBKTNV-1">
          <mxGeometry x="1144.75" y="270" width="130.5" height="50" as="geometry" />
        </mxCell>
        <mxCell id="KQmQDuhJLHhJns7RMKba-91" value="" style="edgeStyle=orthogonalEdgeStyle;rounded=0;orthogonalLoop=1;jettySize=auto;html=1;entryX=0.5;entryY=0;entryDx=0;entryDy=0;" edge="1" parent="WIyWlLk6GJQsqaUBKTNV-1" source="KQmQDuhJLHhJns7RMKba-92" target="KQmQDuhJLHhJns7RMKba-94">
          <mxGeometry relative="1" as="geometry" />
        </mxCell>
        <mxCell id="KQmQDuhJLHhJns7RMKba-92" value="Функция для проведения тестирования" style="rounded=1;whiteSpace=wrap;html=1;fontFamily=Times New Roman;" vertex="1" parent="WIyWlLk6GJQsqaUBKTNV-1">
          <mxGeometry x="1360" y="70.44" width="130.5" height="50" as="geometry" />
        </mxCell>
        <mxCell id="KQmQDuhJLHhJns7RMKba-93" value="" style="edgeStyle=orthogonalEdgeStyle;rounded=0;orthogonalLoop=1;jettySize=auto;html=1;" edge="1" parent="WIyWlLk6GJQsqaUBKTNV-1" source="KQmQDuhJLHhJns7RMKba-94">
          <mxGeometry relative="1" as="geometry">
            <mxPoint x="1425.25" y="192.47" as="targetPoint" />
          </mxGeometry>
        </mxCell>
        <mxCell id="KQmQDuhJLHhJns7RMKba-94" value="&lt;font face=&quot;Times New Roman&quot;&gt;int totalScore = 0&lt;/font&gt;" style="rounded=0;whiteSpace=wrap;html=1;" vertex="1" parent="WIyWlLk6GJQsqaUBKTNV-1">
          <mxGeometry x="1365.25" y="140.47" width="120" height="27.53" as="geometry" />
        </mxCell>
        <mxCell id="KQmQDuhJLHhJns7RMKba-95" value="" style="edgeStyle=orthogonalEdgeStyle;rounded=0;orthogonalLoop=1;jettySize=auto;html=1;" edge="1" parent="WIyWlLk6GJQsqaUBKTNV-1" source="KQmQDuhJLHhJns7RMKba-96">
          <mxGeometry relative="1" as="geometry">
            <mxPoint x="1425.25" y="252.47" as="targetPoint" />
          </mxGeometry>
        </mxCell>
        <mxCell id="KQmQDuhJLHhJns7RMKba-96" value="&lt;font face=&quot;Times New Roman&quot;&gt;Вывод вариантов ответов&lt;/font&gt;" style="shape=loopLimit;whiteSpace=wrap;html=1;" vertex="1" parent="WIyWlLk6GJQsqaUBKTNV-1">
          <mxGeometry x="1365.25" y="192.47" width="120" height="40" as="geometry" />
        </mxCell>
        <mxCell id="KQmQDuhJLHhJns7RMKba-100" value="" style="edgeStyle=orthogonalEdgeStyle;rounded=0;orthogonalLoop=1;jettySize=auto;html=1;" edge="1" parent="WIyWlLk6GJQsqaUBKTNV-1" source="KQmQDuhJLHhJns7RMKba-97" target="KQmQDuhJLHhJns7RMKba-98">
          <mxGeometry relative="1" as="geometry" />
        </mxCell>
        <mxCell id="KQmQDuhJLHhJns7RMKba-97" value="&lt;h5 style=&quot;&quot;&gt;&lt;font size=&quot;1&quot; face=&quot;Times New Roman&quot;&gt;&lt;span style=&quot;font-weight: 400;&quot;&gt;Вывод вопроса на консоль. displayQuestion(questions[i])&lt;/span&gt;&lt;/font&gt;&lt;br&gt;&lt;/h5&gt;" style="shape=process;whiteSpace=wrap;html=1;backgroundOutline=1;align=center;" vertex="1" parent="WIyWlLk6GJQsqaUBKTNV-1">
          <mxGeometry x="1343.87" y="253" width="164.75" height="30" as="geometry" />
        </mxCell>
        <mxCell id="KQmQDuhJLHhJns7RMKba-102" value="" style="edgeStyle=orthogonalEdgeStyle;rounded=0;orthogonalLoop=1;jettySize=auto;html=1;" edge="1" parent="WIyWlLk6GJQsqaUBKTNV-1" source="KQmQDuhJLHhJns7RMKba-98" target="KQmQDuhJLHhJns7RMKba-101">
          <mxGeometry relative="1" as="geometry" />
        </mxCell>
        <mxCell id="KQmQDuhJLHhJns7RMKba-98" value="&lt;h5 style=&quot;font-size: 8px;&quot;&gt;&lt;font style=&quot;font-size: 8px;&quot; face=&quot;Times New Roman&quot;&gt;&lt;span style=&quot;font-weight: 400;&quot;&gt;Чтение правильного ответа. correctAnswer =&amp;nbsp;&lt;/span&gt;&lt;/font&gt;&lt;span style=&quot;font-weight: normal;&quot;&gt;&lt;font face=&quot;Times New Roman&quot;&gt;answerQuestion(questions[i])&lt;/font&gt;&lt;/span&gt;&lt;/h5&gt;" style="shape=process;whiteSpace=wrap;html=1;backgroundOutline=1;align=center;" vertex="1" parent="WIyWlLk6GJQsqaUBKTNV-1">
          <mxGeometry x="1343.87" y="300" width="164.75" height="30" as="geometry" />
        </mxCell>
        <mxCell id="KQmQDuhJLHhJns7RMKba-103" style="edgeStyle=orthogonalEdgeStyle;rounded=0;orthogonalLoop=1;jettySize=auto;html=1;" edge="1" parent="WIyWlLk6GJQsqaUBKTNV-1" source="KQmQDuhJLHhJns7RMKba-101">
          <mxGeometry relative="1" as="geometry">
            <mxPoint x="1560" y="440" as="targetPoint" />
            <Array as="points">
              <mxPoint x="1560" y="395" />
            </Array>
          </mxGeometry>
        </mxCell>
        <mxCell id="KQmQDuhJLHhJns7RMKba-107" style="edgeStyle=orthogonalEdgeStyle;rounded=0;orthogonalLoop=1;jettySize=auto;html=1;exitX=0.5;exitY=1;exitDx=0;exitDy=0;" edge="1" parent="WIyWlLk6GJQsqaUBKTNV-1" source="KQmQDuhJLHhJns7RMKba-101">
          <mxGeometry relative="1" as="geometry">
            <mxPoint x="1426.5" y="480.0000000000001" as="targetPoint" />
          </mxGeometry>
        </mxCell>
        <mxCell id="KQmQDuhJLHhJns7RMKba-101" value="&lt;font style=&quot;font-size: 9px;&quot; face=&quot;Times New Roman&quot;&gt;Елси ответ правильный&lt;/font&gt;&lt;div&gt;&lt;font style=&quot;&quot; face=&quot;Times New Roman&quot;&gt;&lt;font size=&quot;1&quot;&gt;correctAnswer = true&lt;/font&gt;&lt;br&gt;&lt;/font&gt;&lt;/div&gt;" style="rhombus;whiteSpace=wrap;html=1;" vertex="1" parent="WIyWlLk6GJQsqaUBKTNV-1">
          <mxGeometry x="1355.6100000000001" y="350" width="141.26" height="90" as="geometry" />
        </mxCell>
        <mxCell id="KQmQDuhJLHhJns7RMKba-104" value="&lt;font face=&quot;Times New Roman&quot;&gt;Нет&lt;/font&gt;" style="text;html=1;align=center;verticalAlign=middle;whiteSpace=wrap;rounded=0;" vertex="1" parent="WIyWlLk6GJQsqaUBKTNV-1">
          <mxGeometry x="1496.87" y="370" width="53.13" height="30" as="geometry" />
        </mxCell>
        <mxCell id="KQmQDuhJLHhJns7RMKba-106" value="&lt;font face=&quot;Times New Roman&quot; style=&quot;font-size: 11px;&quot;&gt;Неверно! Правильный ответ:&amp;nbsp;correctAnswer&lt;/font&gt;" style="rounded=0;whiteSpace=wrap;html=1;fontSize=11;" vertex="1" parent="WIyWlLk6GJQsqaUBKTNV-1">
          <mxGeometry x="1496.87" y="440" width="120" height="40" as="geometry" />
        </mxCell>
        <mxCell id="KQmQDuhJLHhJns7RMKba-110" value="&lt;font face=&quot;Times New Roman&quot;&gt;Да&lt;/font&gt;" style="text;html=1;align=center;verticalAlign=middle;whiteSpace=wrap;rounded=0;" vertex="1" parent="WIyWlLk6GJQsqaUBKTNV-1">
          <mxGeometry x="1380" y="440" width="53.13" height="30" as="geometry" />
        </mxCell>
        <mxCell id="KQmQDuhJLHhJns7RMKba-113" value="" style="edgeStyle=orthogonalEdgeStyle;rounded=0;orthogonalLoop=1;jettySize=auto;html=1;" edge="1" parent="WIyWlLk6GJQsqaUBKTNV-1" source="KQmQDuhJLHhJns7RMKba-111" target="KQmQDuhJLHhJns7RMKba-112">
          <mxGeometry relative="1" as="geometry" />
        </mxCell>
        <mxCell id="KQmQDuhJLHhJns7RMKba-111" value="&lt;font style=&quot;font-size: 10px;&quot; face=&quot;Times New Roman&quot;&gt;Правильно. Вы заработали баллов&amp;nbsp;questions[i].points&lt;/font&gt;" style="rounded=0;whiteSpace=wrap;html=1;" vertex="1" parent="WIyWlLk6GJQsqaUBKTNV-1">
          <mxGeometry x="1370.5" y="480" width="120" height="40" as="geometry" />
        </mxCell>
        <mxCell id="KQmQDuhJLHhJns7RMKba-115" value="" style="edgeStyle=orthogonalEdgeStyle;rounded=0;orthogonalLoop=1;jettySize=auto;html=1;" edge="1" parent="WIyWlLk6GJQsqaUBKTNV-1" source="KQmQDuhJLHhJns7RMKba-112" target="KQmQDuhJLHhJns7RMKba-114">
          <mxGeometry relative="1" as="geometry" />
        </mxCell>
        <mxCell id="KQmQDuhJLHhJns7RMKba-112" value="&lt;font face=&quot;Times New Roman&quot;&gt;Конец цикла&lt;/font&gt;" style="shape=loopLimit;whiteSpace=wrap;html=1;direction=west;" vertex="1" parent="WIyWlLk6GJQsqaUBKTNV-1">
          <mxGeometry x="1370.5" y="545" width="120" height="40" as="geometry" />
        </mxCell>
        <mxCell id="KQmQDuhJLHhJns7RMKba-117" style="edgeStyle=orthogonalEdgeStyle;rounded=0;orthogonalLoop=1;jettySize=auto;html=1;" edge="1" parent="WIyWlLk6GJQsqaUBKTNV-1" source="KQmQDuhJLHhJns7RMKba-114">
          <mxGeometry relative="1" as="geometry">
            <mxPoint x="1430.5" y="680" as="targetPoint" />
          </mxGeometry>
        </mxCell>
        <mxCell id="KQmQDuhJLHhJns7RMKba-114" value="&lt;font face=&quot;Times New Roman&quot;&gt;&lt;span style=&quot;font-size: 10px;&quot;&gt;Конец теста. Общий балл totalScore&lt;/span&gt;&lt;/font&gt;" style="rounded=0;whiteSpace=wrap;html=1;" vertex="1" parent="WIyWlLk6GJQsqaUBKTNV-1">
          <mxGeometry x="1370.5" y="610" width="120" height="40" as="geometry" />
        </mxCell>
        <mxCell id="KQmQDuhJLHhJns7RMKba-118" value="Возвращает totalScore" style="rounded=1;whiteSpace=wrap;html=1;fontFamily=Times New Roman;" vertex="1" parent="WIyWlLk6GJQsqaUBKTNV-1">
          <mxGeometry x="1365.25" y="680" width="130.5" height="50" as="geometry" />
        </mxCell>
        <mxCell id="KQmQDuhJLHhJns7RMKba-119" value="&lt;font face=&quot;Times New Roman&quot;&gt;Да&lt;/font&gt;" style="text;html=1;align=center;verticalAlign=middle;whiteSpace=wrap;rounded=0;" vertex="1" parent="WIyWlLk6GJQsqaUBKTNV-1">
          <mxGeometry x="170" y="420" width="60" height="30" as="geometry" />
        </mxCell>
        <mxCell id="KQmQDuhJLHhJns7RMKba-120" value="&lt;font face=&quot;Times New Roman&quot;&gt;Нет&lt;/font&gt;" style="text;html=1;align=center;verticalAlign=middle;whiteSpace=wrap;rounded=0;" vertex="1" parent="WIyWlLk6GJQsqaUBKTNV-1">
          <mxGeometry x="170" y="300" width="60" height="30" as="geometry" />
        </mxCell>
        <mxCell id="KQmQDuhJLHhJns7RMKba-124" style="edgeStyle=orthogonalEdgeStyle;rounded=0;orthogonalLoop=1;jettySize=auto;html=1;entryX=0.5;entryY=0;entryDx=0;entryDy=0;" edge="1" parent="WIyWlLk6GJQsqaUBKTNV-1" source="KQmQDuhJLHhJns7RMKba-121" target="KQmQDuhJLHhJns7RMKba-69">
          <mxGeometry relative="1" as="geometry" />
        </mxCell>
        <mxCell id="KQmQDuhJLHhJns7RMKba-121" value="&lt;h5 style=&quot;&quot;&gt;&lt;font size=&quot;1&quot; face=&quot;Times New Roman&quot;&gt;&lt;span style=&quot;font-weight: 400;&quot;&gt;q.question&lt;/span&gt;&lt;/font&gt;&lt;br&gt;&lt;/h5&gt;" style="shape=process;whiteSpace=wrap;html=1;backgroundOutline=1;align=center;" vertex="1" parent="WIyWlLk6GJQsqaUBKTNV-1">
          <mxGeometry x="900" y="140.47" width="140" height="30" as="geometry" />
        </mxCell>
      </root>
    </mxGraphModel>
  </diagram>
</mxfile>
